<mxfile host="app.diagrams.net" modified="2023-02-13T12:46:02.767Z" agent="5.0 (Windows NT 10.0; Win64; x64) AppleWebKit/537.36 (KHTML, like Gecko) Chrome/108.0.0.0 Safari/537.36 Edg/108.0.1462.76" etag="idAKJ10ti-w9gHxI44ea" version="20.8.20" type="github">
  <diagram name="Page-1" id="5d7acffa-a066-3a61-03fe-96351882024d">
    <mxGraphModel dx="1206" dy="664" grid="1" gridSize="10" guides="1" tooltips="1" connect="1" arrows="1" fold="1" page="1" pageScale="1" pageWidth="1654" pageHeight="1169" background="#ffffff" math="0" shadow="0">
      <root>
        <mxCell id="0" />
        <mxCell id="1" parent="0" />
        <mxCell id="afUnE-8WoMJIVUB9L1WI-21" style="edgeStyle=orthogonalEdgeStyle;rounded=0;orthogonalLoop=1;jettySize=auto;html=1;exitX=1;exitY=0.5;exitDx=0;exitDy=0;" edge="1" parent="1" source="afUnE-8WoMJIVUB9L1WI-6" target="afUnE-8WoMJIVUB9L1WI-7">
          <mxGeometry relative="1" as="geometry" />
        </mxCell>
        <mxCell id="afUnE-8WoMJIVUB9L1WI-24" style="edgeStyle=orthogonalEdgeStyle;rounded=0;orthogonalLoop=1;jettySize=auto;html=1;exitX=0.5;exitY=1;exitDx=0;exitDy=0;entryX=0.5;entryY=0;entryDx=0;entryDy=0;" edge="1" parent="1" source="afUnE-8WoMJIVUB9L1WI-6" target="afUnE-8WoMJIVUB9L1WI-9">
          <mxGeometry relative="1" as="geometry" />
        </mxCell>
        <mxCell id="afUnE-8WoMJIVUB9L1WI-25" style="edgeStyle=orthogonalEdgeStyle;rounded=0;orthogonalLoop=1;jettySize=auto;html=1;exitX=0;exitY=0.5;exitDx=0;exitDy=0;entryX=0;entryY=0.5;entryDx=0;entryDy=0;" edge="1" parent="1" source="afUnE-8WoMJIVUB9L1WI-6" target="afUnE-8WoMJIVUB9L1WI-19">
          <mxGeometry relative="1" as="geometry" />
        </mxCell>
        <mxCell id="afUnE-8WoMJIVUB9L1WI-26" style="edgeStyle=orthogonalEdgeStyle;rounded=0;orthogonalLoop=1;jettySize=auto;html=1;exitX=0;exitY=0.25;exitDx=0;exitDy=0;entryX=0;entryY=0.5;entryDx=0;entryDy=0;" edge="1" parent="1" source="afUnE-8WoMJIVUB9L1WI-6" target="afUnE-8WoMJIVUB9L1WI-20">
          <mxGeometry relative="1" as="geometry" />
        </mxCell>
        <mxCell id="afUnE-8WoMJIVUB9L1WI-6" value="Import Data" style="rounded=0;whiteSpace=wrap;html=1;fontStyle=1;fontFamily=Tahoma;" vertex="1" parent="1">
          <mxGeometry x="50" y="40" width="120" height="60" as="geometry" />
        </mxCell>
        <mxCell id="afUnE-8WoMJIVUB9L1WI-28" style="edgeStyle=orthogonalEdgeStyle;rounded=0;orthogonalLoop=1;jettySize=auto;html=1;exitX=0.5;exitY=1;exitDx=0;exitDy=0;" edge="1" parent="1" source="afUnE-8WoMJIVUB9L1WI-7" target="afUnE-8WoMJIVUB9L1WI-22">
          <mxGeometry relative="1" as="geometry">
            <Array as="points">
              <mxPoint x="420" y="140" />
              <mxPoint x="420" y="140" />
            </Array>
          </mxGeometry>
        </mxCell>
        <mxCell id="afUnE-8WoMJIVUB9L1WI-7" value="Tidy" style="rounded=0;whiteSpace=wrap;html=1;fontStyle=1;fontFamily=Tahoma;" vertex="1" parent="1">
          <mxGeometry x="360" y="40" width="130" height="60" as="geometry" />
        </mxCell>
        <mxCell id="afUnE-8WoMJIVUB9L1WI-8" value="Combine" style="rounded=0;whiteSpace=wrap;html=1;" vertex="1" parent="1">
          <mxGeometry x="910" y="50" width="120" height="60" as="geometry" />
        </mxCell>
        <mxCell id="afUnE-8WoMJIVUB9L1WI-9" value="SAF" style="shape=hexagon;perimeter=hexagonPerimeter2;whiteSpace=wrap;html=1;fixedSize=1;" vertex="1" parent="1">
          <mxGeometry x="50" y="120" width="120" height="70" as="geometry" />
        </mxCell>
        <mxCell id="afUnE-8WoMJIVUB9L1WI-10" value="SEAS" style="shape=hexagon;perimeter=hexagonPerimeter2;whiteSpace=wrap;html=1;fixedSize=1;fillColor=#d5e8d4;strokeColor=#82b366;" vertex="1" parent="1">
          <mxGeometry x="190" y="130" width="90" height="20" as="geometry" />
        </mxCell>
        <mxCell id="afUnE-8WoMJIVUB9L1WI-11" value="PERM" style="shape=hexagon;perimeter=hexagonPerimeter2;whiteSpace=wrap;html=1;fixedSize=1;fillColor=#f8cecc;strokeColor=#b85450;" vertex="1" parent="1">
          <mxGeometry x="190" y="160" width="90" height="20" as="geometry" />
        </mxCell>
        <mxCell id="afUnE-8WoMJIVUB9L1WI-15" value="" style="endArrow=none;dashed=1;html=1;dashPattern=1 3;strokeWidth=2;rounded=0;entryX=0;entryY=0.5;entryDx=0;entryDy=0;" edge="1" parent="1" target="afUnE-8WoMJIVUB9L1WI-10">
          <mxGeometry width="50" height="50" relative="1" as="geometry">
            <mxPoint x="170" y="160" as="sourcePoint" />
            <mxPoint x="220" y="110" as="targetPoint" />
          </mxGeometry>
        </mxCell>
        <mxCell id="afUnE-8WoMJIVUB9L1WI-16" value="" style="endArrow=none;dashed=1;html=1;dashPattern=1 3;strokeWidth=2;rounded=0;entryX=0;entryY=0.5;entryDx=0;entryDy=0;" edge="1" parent="1" target="afUnE-8WoMJIVUB9L1WI-11">
          <mxGeometry width="50" height="50" relative="1" as="geometry">
            <mxPoint x="170" y="160" as="sourcePoint" />
            <mxPoint x="200" y="220" as="targetPoint" />
          </mxGeometry>
        </mxCell>
        <mxCell id="afUnE-8WoMJIVUB9L1WI-17" value="SCHEME" style="shape=hexagon;perimeter=hexagonPerimeter2;whiteSpace=wrap;html=1;fixedSize=1;fillColor=#f5f5f5;fontColor=#333333;strokeColor=#666666;" vertex="1" parent="1">
          <mxGeometry x="190" y="190" width="90" height="20" as="geometry" />
        </mxCell>
        <mxCell id="afUnE-8WoMJIVUB9L1WI-18" value="" style="endArrow=none;dashed=1;html=1;dashPattern=1 3;strokeWidth=2;rounded=0;entryX=0;entryY=0.5;entryDx=0;entryDy=0;" edge="1" parent="1" target="afUnE-8WoMJIVUB9L1WI-17">
          <mxGeometry width="50" height="50" relative="1" as="geometry">
            <mxPoint x="170" y="165" as="sourcePoint" />
            <mxPoint x="200" y="175" as="targetPoint" />
          </mxGeometry>
        </mxCell>
        <mxCell id="afUnE-8WoMJIVUB9L1WI-19" value="JAC" style="shape=hexagon;perimeter=hexagonPerimeter2;whiteSpace=wrap;html=1;fixedSize=1;fillColor=#dae8fc;strokeColor=#6c8ebf;" vertex="1" parent="1">
          <mxGeometry x="50" y="230" width="120" height="70" as="geometry" />
        </mxCell>
        <mxCell id="afUnE-8WoMJIVUB9L1WI-20" value="Registered Crofts" style="shape=hexagon;perimeter=hexagonPerimeter2;whiteSpace=wrap;html=1;fixedSize=1;fillColor=#fff2cc;strokeColor=#d6b656;" vertex="1" parent="1">
          <mxGeometry x="50" y="360" width="120" height="70" as="geometry" />
        </mxCell>
        <mxCell id="afUnE-8WoMJIVUB9L1WI-45" value="SAF ONLY" style="edgeStyle=orthogonalEdgeStyle;rounded=0;orthogonalLoop=1;jettySize=auto;html=1;exitX=0.5;exitY=1;exitDx=0;exitDy=0;entryX=0.5;entryY=0;entryDx=0;entryDy=0;fontFamily=Helvetica;fontSize=8;" edge="1" parent="1" source="afUnE-8WoMJIVUB9L1WI-22" target="afUnE-8WoMJIVUB9L1WI-27">
          <mxGeometry relative="1" as="geometry" />
        </mxCell>
        <mxCell id="afUnE-8WoMJIVUB9L1WI-50" style="edgeStyle=orthogonalEdgeStyle;rounded=0;orthogonalLoop=1;jettySize=auto;html=1;exitX=1;exitY=0.5;exitDx=0;exitDy=0;entryX=0.5;entryY=0;entryDx=0;entryDy=0;fontFamily=Helvetica;" edge="1" parent="1" source="afUnE-8WoMJIVUB9L1WI-22" target="afUnE-8WoMJIVUB9L1WI-23">
          <mxGeometry relative="1" as="geometry" />
        </mxCell>
        <mxCell id="afUnE-8WoMJIVUB9L1WI-51" value="JAC and Registered Crofts (?)" style="edgeLabel;html=1;align=center;verticalAlign=middle;resizable=0;points=[];fontFamily=Helvetica;fontSize=8;" vertex="1" connectable="0" parent="afUnE-8WoMJIVUB9L1WI-50">
          <mxGeometry x="-0.4643" y="2" relative="1" as="geometry">
            <mxPoint x="26" y="-8" as="offset" />
          </mxGeometry>
        </mxCell>
        <mxCell id="afUnE-8WoMJIVUB9L1WI-22" value="&lt;ul&gt;&lt;li style=&quot;text-align: left;&quot;&gt;&lt;b&gt;Create item lists (&lt;/b&gt;&lt;span style=&quot;background-color: initial;&quot;&gt;update variables,&amp;nbsp;&lt;/span&gt;&lt;span style=&quot;background-color: initial;&quot;&gt;categorise)&lt;/span&gt;&lt;/li&gt;&lt;li style=&quot;text-align: left;&quot;&gt;&lt;span style=&quot;background-color: initial;&quot;&gt;&lt;b&gt;Adhoc corrections (&lt;/b&gt;pre imputation)&lt;/span&gt;&lt;/li&gt;&lt;li style=&quot;text-align: left;&quot;&gt;&lt;span style=&quot;background-color: initial;&quot;&gt;&lt;b&gt;Drop missing variables&lt;/b&gt;&lt;/span&gt;&lt;/li&gt;&lt;/ul&gt;" style="shape=parallelogram;perimeter=parallelogramPerimeter;fixedSize=1;labelPosition=center;verticalLabelPosition=middle;align=center;verticalAlign=middle;spacing=0;whiteSpace=wrap;html=1;" vertex="1" parent="1">
          <mxGeometry x="310" y="130" width="250" height="80" as="geometry" />
        </mxCell>
        <mxCell id="afUnE-8WoMJIVUB9L1WI-57" style="edgeStyle=orthogonalEdgeStyle;rounded=0;orthogonalLoop=1;jettySize=auto;html=1;exitX=0.5;exitY=1;exitDx=0;exitDy=0;entryX=0.5;entryY=0;entryDx=0;entryDy=0;fontFamily=Helvetica;fontSize=8;" edge="1" parent="1" source="afUnE-8WoMJIVUB9L1WI-23" target="afUnE-8WoMJIVUB9L1WI-54">
          <mxGeometry relative="1" as="geometry" />
        </mxCell>
        <mxCell id="afUnE-8WoMJIVUB9L1WI-23" value="Validations" style="rounded=0;whiteSpace=wrap;html=1;fontStyle=1;fontFamily=Tahoma;" vertex="1" parent="1">
          <mxGeometry x="730" y="240" width="120" height="60" as="geometry" />
        </mxCell>
        <mxCell id="afUnE-8WoMJIVUB9L1WI-43" style="edgeStyle=orthogonalEdgeStyle;rounded=0;orthogonalLoop=1;jettySize=auto;html=1;exitX=0.75;exitY=1;exitDx=0;exitDy=0;entryX=0.16;entryY=0.235;entryDx=0;entryDy=0;entryPerimeter=0;fontFamily=Helvetica;" edge="1" parent="1" source="afUnE-8WoMJIVUB9L1WI-27" target="afUnE-8WoMJIVUB9L1WI-30">
          <mxGeometry relative="1" as="geometry">
            <Array as="points">
              <mxPoint x="464" y="300" />
            </Array>
          </mxGeometry>
        </mxCell>
        <mxCell id="afUnE-8WoMJIVUB9L1WI-44" style="edgeStyle=orthogonalEdgeStyle;rounded=0;orthogonalLoop=1;jettySize=auto;html=1;exitX=0;exitY=0.5;exitDx=0;exitDy=0;entryX=0.625;entryY=0;entryDx=0;entryDy=0;fontFamily=Helvetica;" edge="1" parent="1" source="afUnE-8WoMJIVUB9L1WI-27" target="afUnE-8WoMJIVUB9L1WI-31">
          <mxGeometry relative="1" as="geometry" />
        </mxCell>
        <mxCell id="afUnE-8WoMJIVUB9L1WI-49" style="edgeStyle=orthogonalEdgeStyle;rounded=0;orthogonalLoop=1;jettySize=auto;html=1;exitX=1;exitY=0.5;exitDx=0;exitDy=0;entryX=0;entryY=0.5;entryDx=0;entryDy=0;fontFamily=Helvetica;" edge="1" parent="1" source="afUnE-8WoMJIVUB9L1WI-27" target="afUnE-8WoMJIVUB9L1WI-23">
          <mxGeometry relative="1" as="geometry" />
        </mxCell>
        <mxCell id="afUnE-8WoMJIVUB9L1WI-27" value="SAF Clean" style="rounded=0;whiteSpace=wrap;html=1;fontStyle=1;fontFamily=Tahoma;" vertex="1" parent="1">
          <mxGeometry x="370" y="240" width="120" height="60" as="geometry" />
        </mxCell>
        <mxCell id="afUnE-8WoMJIVUB9L1WI-29" value="SAF" style="shape=hexagon;perimeter=hexagonPerimeter2;whiteSpace=wrap;html=1;fixedSize=1;" vertex="1" parent="1">
          <mxGeometry x="50" y="120" width="120" height="70" as="geometry" />
        </mxCell>
        <mxCell id="afUnE-8WoMJIVUB9L1WI-47" style="edgeStyle=orthogonalEdgeStyle;rounded=0;orthogonalLoop=1;jettySize=auto;html=1;entryX=0.5;entryY=0;entryDx=0;entryDy=0;fontFamily=Helvetica;" edge="1" parent="1" source="afUnE-8WoMJIVUB9L1WI-30" target="afUnE-8WoMJIVUB9L1WI-46">
          <mxGeometry relative="1" as="geometry" />
        </mxCell>
        <mxCell id="afUnE-8WoMJIVUB9L1WI-30" value="SEAS" style="shape=hexagon;perimeter=hexagonPerimeter2;whiteSpace=wrap;html=1;fixedSize=1;fillColor=#d5e8d4;strokeColor=#82b366;" vertex="1" parent="1">
          <mxGeometry x="450" y="320" width="90" height="20" as="geometry" />
        </mxCell>
        <mxCell id="afUnE-8WoMJIVUB9L1WI-41" style="edgeStyle=orthogonalEdgeStyle;rounded=0;orthogonalLoop=1;jettySize=auto;html=1;exitX=0.5;exitY=1;exitDx=0;exitDy=0;entryX=0.465;entryY=0.018;entryDx=0;entryDy=0;entryPerimeter=0;fontFamily=Helvetica;" edge="1" parent="1" source="afUnE-8WoMJIVUB9L1WI-31" target="afUnE-8WoMJIVUB9L1WI-32">
          <mxGeometry relative="1" as="geometry">
            <Array as="points">
              <mxPoint x="335" y="350" />
              <mxPoint x="293" y="350" />
            </Array>
          </mxGeometry>
        </mxCell>
        <mxCell id="afUnE-8WoMJIVUB9L1WI-31" value="PERM" style="shape=hexagon;perimeter=hexagonPerimeter2;whiteSpace=wrap;html=1;fixedSize=1;fillColor=#f8cecc;strokeColor=#b85450;" vertex="1" parent="1">
          <mxGeometry x="290" y="320" width="90" height="20" as="geometry" />
        </mxCell>
        <mxCell id="afUnE-8WoMJIVUB9L1WI-32" value="&lt;ul&gt;&lt;li style=&quot;text-align: left;&quot;&gt;&lt;span style=&quot;background-color: initial;&quot;&gt;Correct invalid codes&lt;/span&gt;&lt;/li&gt;&lt;li style=&quot;text-align: left;&quot;&gt;Split entries with SFP AND Other to two lines&lt;/li&gt;&lt;li style=&quot;text-align: left;&quot;&gt;Process LLO into standard format, add LLO flag&lt;/li&gt;&lt;/ul&gt;" style="shape=parallelogram;perimeter=parallelogramPerimeter;fixedSize=1;labelPosition=center;verticalLabelPosition=middle;align=center;verticalAlign=middle;spacing=0;whiteSpace=wrap;html=1;" vertex="1" parent="1">
          <mxGeometry x="200" y="365" width="200" height="90" as="geometry" />
        </mxCell>
        <mxCell id="afUnE-8WoMJIVUB9L1WI-46" value="&lt;ul&gt;&lt;li style=&quot;text-align: left;&quot;&gt;Process SFP only, ignore Other&lt;/li&gt;&lt;/ul&gt;" style="shape=parallelogram;perimeter=parallelogramPerimeter;fixedSize=1;labelPosition=center;verticalLabelPosition=middle;align=center;verticalAlign=middle;spacing=0;whiteSpace=wrap;html=1;" vertex="1" parent="1">
          <mxGeometry x="415" y="390" width="160" height="40" as="geometry" />
        </mxCell>
        <mxCell id="afUnE-8WoMJIVUB9L1WI-52" value="All SAF" style="edgeLabel;html=1;align=center;verticalAlign=middle;resizable=0;points=[];fontFamily=Helvetica;fontSize=8;" vertex="1" connectable="0" parent="1">
          <mxGeometry x="550.0030434782608" y="260" as="geometry" />
        </mxCell>
        <mxCell id="afUnE-8WoMJIVUB9L1WI-53" value="All Datasets&amp;nbsp;" style="edgeLabel;html=1;align=center;verticalAlign=middle;resizable=0;points=[];fontFamily=Helvetica;fontSize=8;" vertex="1" connectable="0" parent="1">
          <mxGeometry x="260.0030434782608" y="60" as="geometry" />
        </mxCell>
        <mxCell id="afUnE-8WoMJIVUB9L1WI-58" style="edgeStyle=orthogonalEdgeStyle;rounded=0;orthogonalLoop=1;jettySize=auto;html=1;exitX=0.25;exitY=1;exitDx=0;exitDy=0;entryX=0.5;entryY=0;entryDx=0;entryDy=0;fontFamily=Helvetica;fontSize=8;" edge="1" parent="1" source="afUnE-8WoMJIVUB9L1WI-54" target="afUnE-8WoMJIVUB9L1WI-56">
          <mxGeometry relative="1" as="geometry" />
        </mxCell>
        <mxCell id="afUnE-8WoMJIVUB9L1WI-59" style="edgeStyle=orthogonalEdgeStyle;rounded=0;orthogonalLoop=1;jettySize=auto;html=1;exitX=0.75;exitY=1;exitDx=0;exitDy=0;entryX=0.625;entryY=0;entryDx=0;entryDy=0;fontFamily=Helvetica;fontSize=8;" edge="1" parent="1" source="afUnE-8WoMJIVUB9L1WI-54" target="afUnE-8WoMJIVUB9L1WI-55">
          <mxGeometry relative="1" as="geometry" />
        </mxCell>
        <mxCell id="afUnE-8WoMJIVUB9L1WI-54" value="&lt;ul&gt;&lt;li style=&quot;text-align: left;&quot;&gt;Punch error checks (compare to previous years)&lt;/li&gt;&lt;li style=&quot;text-align: left;&quot;&gt;Check variables against threshold values&lt;/li&gt;&lt;li style=&quot;text-align: left;&quot;&gt;Check if subtotal variables are equal to or less than total variable&lt;/li&gt;&lt;li style=&quot;text-align: left;&quot;&gt;etc&lt;/li&gt;&lt;li style=&quot;text-align: left;&quot;&gt;&lt;b&gt;Flag entries with errors&amp;nbsp;&lt;/b&gt;&lt;/li&gt;&lt;/ul&gt;" style="shape=parallelogram;perimeter=parallelogramPerimeter;fixedSize=1;labelPosition=center;verticalLabelPosition=middle;align=center;verticalAlign=middle;spacing=0;whiteSpace=wrap;html=1;" vertex="1" parent="1">
          <mxGeometry x="615" y="330" width="350" height="90" as="geometry" />
        </mxCell>
        <mxCell id="afUnE-8WoMJIVUB9L1WI-55" value="SEAS" style="shape=hexagon;perimeter=hexagonPerimeter2;whiteSpace=wrap;html=1;fixedSize=1;fillColor=#d5e8d4;strokeColor=#82b366;" vertex="1" parent="1">
          <mxGeometry x="825" y="450" width="90" height="20" as="geometry" />
        </mxCell>
        <mxCell id="afUnE-8WoMJIVUB9L1WI-56" value="PERM" style="shape=hexagon;perimeter=hexagonPerimeter2;whiteSpace=wrap;html=1;fixedSize=1;fillColor=#f8cecc;strokeColor=#b85450;" vertex="1" parent="1">
          <mxGeometry x="665" y="450" width="90" height="20" as="geometry" />
        </mxCell>
        <mxCell id="afUnE-8WoMJIVUB9L1WI-60" value="&lt;ul&gt;&lt;li style=&quot;text-align: left;&quot;&gt;&lt;b&gt;check multiple holdings for same FIDS&lt;/b&gt; (flag LLO if FID appears on more than one perm sheet)&lt;/li&gt;&lt;li style=&quot;text-align: left;&quot;&gt;check crop/land use =&amp;lt;SAF field area&lt;/li&gt;&lt;li style=&quot;text-align: left;&quot;&gt;&lt;br&gt;&lt;/li&gt;&lt;/ul&gt;" style="shape=parallelogram;perimeter=parallelogramPerimeter;fixedSize=1;labelPosition=center;verticalLabelPosition=middle;align=center;verticalAlign=middle;spacing=0;whiteSpace=wrap;html=1;" vertex="1" parent="1">
          <mxGeometry x="480" y="490" width="295" height="90" as="geometry" />
        </mxCell>
      </root>
    </mxGraphModel>
  </diagram>
</mxfile>
